<svg width="14" height="11" viewBox="0 0 14 11" fill="none" xmlns="http://www.w3.org/2000/svg">
<path d="M13.8049 5.43193L8.16207 9.59693C7.80847 9.85801 7.40782 9.9954 7.00006 9.9954C6.5923 9.9954 6.19165 9.85801 5.83805 9.59693L0.777785 5.86193V10.4979C0.777785 10.6305 0.736812 10.7577 0.663881 10.8515C0.590949 10.9453 0.492033 10.9979 0.388892 10.9979C0.285752 10.9979 0.186835 10.9453 0.113904 10.8515C0.0409725 10.7577 5.9835e-08 10.6305 5.9835e-08 10.4979V4.99793C-3.88288e-05 4.90778 0.0188792 4.8193 0.0547517 4.74184C0.0906243 4.66439 0.142117 4.60084 0.20378 4.55793L5.83805 0.398929C6.19158 0.137555 6.59225 0 7.00006 0C7.40787 0 7.80854 0.137555 8.16207 0.398929L13.8049 4.56493C13.8642 4.60875 13.9135 4.6719 13.9477 4.74801C13.982 4.82412 14 4.91049 14 4.99843C14 5.08636 13.982 5.17274 13.9477 5.24885C13.9135 5.32496 13.8642 5.38811 13.8049 5.43193Z" fill="#667081"/>
</svg>
